<?xml version="1.0" standalone="no"?>
<!DOCTYPE svg PUBLIC "-//W3C//DTD SVG 20010904//EN"
 "http://www.w3.org/TR/2001/REC-SVG-20010904/DTD/svg10.dtd">
<svg version="1.0" xmlns="http://www.w3.org/2000/svg"
 width="200.000000pt" height="200.000000pt" viewBox="0 0 200.000000 200.000000"
 preserveAspectRatio="xMidYMid meet">

<g transform="translate(0.000000,200.000000) scale(0.100000,-0.100000)"
fill="#000000" stroke="none">
<path d="M895 1983 c-381 -49 -689 -288 -820 -637 -156 -416 -11 -894 350
-1151 86 -62 231 -128 340 -156 119 -31 330 -33 450 -5 377 87 664 374 751
751 28 118 26 330 -4 449 -97 390 -416 681 -812 741 -89 14 -186 17 -255 8z
m222 -84 c361 -49 654 -306 759 -664 35 -120 39 -319 10 -435 -100 -389 -402
-658 -789 -702 -297 -34 -608 94 -795 327 -78 97 -123 178 -161 290 -78 234
-61 465 51 690 171 344 548 546 925 494z"/>
<path d="M811 1740 c-341 -90 -571 -388 -571 -740 0 -527 507 -892 1007 -725
436 145 645 654 438 1065 -102 202 -280 345 -499 400 -106 27 -272 27 -375 0z
m327 -56 c239 -48 445 -231 529 -469 25 -73 28 -93 27 -215 0 -119 -3 -144
-26 -213 -36 -108 -97 -205 -177 -285 -82 -80 -168 -133 -276 -169 -70 -24
-97 -27 -210 -27 -117 -1 -139 2 -219 28 -217 71 -386 247 -458 476 -34 111
-32 283 5 395 37 112 90 197 177 286 167 170 396 240 628 193z"/>
<path d="M919 1523 c-12 -31 -329 -966 -329 -970 0 -2 27 -3 60 -3 l59 0 49
153 48 152 188 0 188 0 47 -150 47 -150 62 -3 c34 -2 62 1 62 5 0 4 -75 230
-167 501 l-166 492 -69 0 c-65 0 -69 -1 -79 -27z m106 -153 c9 -36 41 -143 71
-239 30 -95 54 -175 54 -177 0 -2 -70 -4 -155 -4 -85 0 -155 4 -155 8 0 5 9
35 20 68 12 32 43 136 71 229 28 94 52 176 55 184 7 23 20 1 39 -69z"/>
</g>
</svg>
